<svg width="20" height="20" viewBox="0 0 20 20" fill="none" xmlns="http://www.w3.org/2000/svg">
<rect x="5" y="2" width="13" height="16" rx="2" fill="#33C481"/>
<path d="M18 10V6H12V2H6.75C5.7835 2 5 2.7835 5 3.75V10H18Z" fill="#21A366"/>
<path d="M5 10H18V14H5V10Z" fill="#107C41"/>
<path d="M18 16V14H12V10H5V16C5 17.1046 5.89543 18 7 18H16C17.1046 18 18 17.1046 18 16Z" fill="#185C37"/>
<path d="M5 6H12C12.5523 6 13 6.44772 13 7V14C13 15.1046 12.1046 16 11 16H5V6Z" fill="black" fill-opacity="0.5"/>
<rect x="2" y="5" width="10" height="10" rx="1" fill="#107C41"/>
<path d="M9.58608 13H8.36L7.15066 10.8742C7.12835 10.838 7.10603 10.7905 7.08371 10.732C7.06418 10.6734 7.04326 10.6036 7.02094 10.5227H7.0042C6.99026 10.5618 6.97212 10.612 6.9498 10.6734C6.92749 10.732 6.89819 10.8017 6.86193 10.8826L5.63166 13H4.39722L6.35978 9.9913L4.56042 6.99933H5.8116L6.85356 8.95352C6.88983 9.02327 6.9233 9.09719 6.95399 9.17531C6.98747 9.25342 7.01955 9.33432 7.05023 9.41801H7.06697C7.09766 9.34269 7.12974 9.26458 7.16322 9.18367C7.19948 9.10277 7.23715 9.02048 7.2762 8.93678L8.39348 6.99933H9.54842L7.70721 9.97456L9.58608 13Z" fill="white"/>
</svg>
