<svg xmlns="http://www.w3.org/2000/svg" viewBox="0 0 24 24" fill="currentColor">
  <path d="M12 1.5H8.25C6.179 1.5 4.5 3.179 4.5 5.25c0 1.282.645 2.415 1.628 3.094A3.744 3.744 0 004.5 11.25c0 1.282.645 2.415 1.628 3.094A3.744 3.744 0 004.5 17.25c0 2.071 1.679 3.75 3.75 3.75 2.071 0 3.75-1.679 3.75-3.75V15h3.75c2.071 0 3.75-1.679 3.75-3.75 0-1.282-.645-2.415-1.628-3.094A3.744 3.744 0 0019.5 5.25c0-2.071-1.679-3.75-3.75-3.75H12zm0 13.5H8.25c-1.035 0-1.875.84-1.875 1.875s.84 1.875 1.875 1.875S10.125 17.91 10.125 16.875V15zM8.25 9.375c-1.035 0-1.875.84-1.875 1.875s.84 1.875 1.875 1.875h3.75V9.375H8.25zm0-6c-1.035 0-1.875.84-1.875 1.875s.84 1.875 1.875 1.875h3.75V3.375H8.25zm7.5 0c-1.035 0-1.875.84-1.875 1.875s.84 1.875 1.875 1.875 1.875-.84 1.875-1.875-.84-1.875-1.875-1.875zm0 6c-1.035 0-1.875.84-1.875 1.875s.84 1.875 1.875 1.875 1.875-.84 1.875-1.875-.84-1.875-1.875-1.875z"/>
</svg> 