<svg width="20" height="20" viewBox="0 0 20 20" fill="none" xmlns="http://www.w3.org/2000/svg">
<path d="M10 2C5.58172 2 2 5.58172 2 10C2 14.4183 5.58172 18 10 18C14.4183 18 18 14.4183 18 10C18 5.58172 14.4183 2 10 2Z" fill="#D35230"/>
<path d="M10 2C5.58172 2 2 5.58172 2 10H10V2Z" fill="#ED6C47"/>
<path d="M18 10C18 5.58172 14.4183 2 10 2V10H18Z" fill="#FF8F6B"/>
<path fill-rule="evenodd" clip-rule="evenodd" d="M4.70835 16H10C11.1046 16 12 15.1046 12 14V7C12 6.44772 11.5523 6 11 6H3.07026C2.38958 7.17669 2 8.54285 2 10C2 12.3894 3.04751 14.5341 4.70835 16Z" fill="black" fill-opacity="0.5"/>
<rect x="1" y="5" width="10" height="10" rx="1" fill="#C43E1C"/>
<path d="M5.02522 10.9163V13.0002H4V6.99951H5.88306C6.58048 6.99951 7.11193 7.16132 7.47738 7.48492C7.84283 7.80574 8.02556 8.27441 8.02556 8.89094C8.02556 9.49073 7.81912 9.97893 7.40624 10.3555C6.99336 10.7294 6.4396 10.9163 5.74497 10.9163H5.02522ZM5.02522 7.83643V10.0877H5.66127C6.08252 10.0877 6.40194 9.98869 6.61954 9.79062C6.83993 9.59255 6.95012 9.3066 6.95012 8.93278C6.95012 8.56733 6.84551 8.29394 6.63628 8.11261C6.42984 7.92849 6.11879 7.83643 5.70312 7.83643H5.02522Z" fill="white"/>
</svg>
