<svg width="20" height="20" viewBox="0 0 20 20" fill="none" xmlns="http://www.w3.org/2000/svg">
<rect x="5" y="2" width="13" height="16" rx="2" fill="#41A5EE"/>
<path d="M5 6H18V10H5V6Z" fill="#2B7CD3"/>
<path d="M5 10H18V14H5V10Z" fill="#185ABD"/>
<path d="M5 14H18V16C18 17.1046 17.1046 18 16 18H7C5.89543 18 5 17.1046 5 16V14Z" fill="#103F91"/>
<path d="M5 6H12C12.5523 6 13 6.44772 13 7V14C13 15.1046 12.1046 16 11 16H5V6Z" fill="black" fill-opacity="0.5"/>
<rect x="2" y="5" width="10" height="10" rx="1" fill="#185ABD"/>
<path d="M11.0634 6.99951L9.4231 13.0002H8.25978L7.14669 8.88257C7.12158 8.78493 7.10066 8.6831 7.08392 8.57709C7.06718 8.4683 7.05602 8.35531 7.05044 8.23814H7.03371C7.02255 8.3581 7.0072 8.47109 6.98768 8.57709C6.97094 8.6831 6.95001 8.78353 6.92491 8.87838L5.79089 13.0002H4.60666L2.93701 6.99951H4.06266L5.12136 11.3012C5.14646 11.3905 5.16599 11.4896 5.17994 11.5984C5.19389 11.7044 5.20505 11.8201 5.21342 11.9457H5.23434C5.24271 11.8536 5.25666 11.7532 5.27619 11.6444C5.2985 11.5356 5.3264 11.4184 5.35988 11.2929L6.56922 6.99951H7.62791L8.75775 11.3347C8.77728 11.41 8.79541 11.4979 8.81215 11.5984C8.82889 11.6988 8.84284 11.8118 8.85399 11.9373H8.87073C8.87631 11.8452 8.88747 11.7476 8.90421 11.6444C8.92374 11.5412 8.94605 11.431 8.97116 11.3138L10.0006 6.99951H11.0634Z" fill="white"/>
</svg>
